<svg width="360" height="360" viewBox="0 0 360 360" fill="none" xmlns="http://www.w3.org/2000/svg">
<g opacity="0.922612">
<path d="M282.031 276.08C276.604 281.793 271.469 285.477 267.412 288.388C219.723 322.606 163.294 312.631 151.302 310.196C133.592 306.599 99.3603 299.646 74.6112 270.541C37.1678 226.509 42.9983 157.137 72.0419 111.343C77.3544 102.967 105.417 56.4754 162.453 49.0197C196.971 44.5076 237.208 53.6081 266.346 78.0203C327.51 129.264 323.156 232.784 282.031 276.08Z" fill="#DBE4FE"/>
</g>
<g opacity="0.922612">
<path d="M305.852 89.1211C305.536 88.729 305.21 88.3422 304.884 87.9716C304.748 87.8173 304.513 87.8023 304.357 87.9374C304.202 88.0726 304.186 88.3072 304.322 88.4614C304.641 88.8245 304.96 89.2031 305.27 89.5871C305.351 89.6869 305.472 89.734 305.592 89.7243C305.663 89.7185 305.734 89.6919 305.795 89.6433C305.955 89.5149 305.981 89.281 305.852 89.1211Z" fill="#96B6FA"/>
<path d="M313.202 111.472C313.202 111.678 313.369 111.844 313.575 111.844C313.585 111.844 313.594 111.843 313.604 111.843C313.796 111.827 313.946 111.666 313.946 111.47C313.942 110.568 313.904 109.656 313.833 108.759C313.823 108.639 313.813 108.52 313.802 108.4C313.784 108.196 313.605 108.046 313.402 108.062C313.401 108.062 313.399 108.062 313.398 108.062C313.193 108.081 313.042 108.262 313.061 108.467C313.072 108.584 313.081 108.701 313.091 108.818C313.161 109.697 313.198 110.59 313.202 111.472Z" fill="#96B6FA"/>
<path d="M281.442 147.029C281.44 147.029 281.439 147.03 281.437 147.03C280.439 147.121 279.428 147.173 278.431 147.179C278.221 147.18 278.06 147.349 278.061 147.554C278.062 147.759 278.23 147.925 278.435 147.923C279.302 147.918 280.181 147.879 281.048 147.81C281.2 147.798 281.353 147.785 281.505 147.771C281.71 147.752 281.861 147.57 281.842 147.366C281.823 147.163 281.645 147.013 281.442 147.029Z" fill="#96B6FA"/>
<path d="M312.613 103.931C312.631 103.929 312.65 103.926 312.668 103.922C312.868 103.875 312.993 103.675 312.946 103.475C312.715 102.485 312.438 101.49 312.122 100.519C312.058 100.323 311.849 100.218 311.652 100.28C311.456 100.343 311.349 100.553 311.413 100.749C311.722 101.7 311.994 102.675 312.221 103.645C312.263 103.826 312.432 103.945 312.613 103.931Z" fill="#96B6FA"/>
<path d="M309.895 96.4333C309.94 96.4297 309.985 96.418 310.028 96.3972C310.213 96.3075 310.29 96.0849 310.2 95.9002C309.754 94.9821 309.263 94.0744 308.742 93.2022C308.637 93.0254 308.408 92.9683 308.231 93.0733C308.054 93.1782 307.996 93.4063 308.101 93.5824C308.611 94.4369 309.092 95.3258 309.529 96.2254C309.598 96.3674 309.746 96.4453 309.895 96.4333Z" fill="#96B6FA"/>
<path d="M303.065 137.204C302.923 137.055 302.688 137.05 302.54 137.193C301.822 137.888 301.066 138.558 300.293 139.186C300.133 139.316 300.109 139.551 300.237 139.711C300.318 139.811 300.438 139.859 300.557 139.849C300.629 139.843 300.699 139.816 300.76 139.768C301.549 139.127 302.321 138.442 303.055 137.732C303.203 137.589 303.207 137.353 303.065 137.204Z" fill="#96B6FA"/>
<path d="M308.159 131.495C308.271 131.323 308.223 131.091 308.051 130.978C307.879 130.866 307.649 130.913 307.537 131.086C306.992 131.925 306.405 132.75 305.792 133.538C305.666 133.7 305.694 133.935 305.856 134.063C305.933 134.123 306.025 134.149 306.115 134.141C306.215 134.133 306.311 134.085 306.377 134C307.003 133.195 307.602 132.353 308.159 131.495Z" fill="#96B6FA"/>
<path d="M289.62 145.6C289.556 145.404 289.346 145.296 289.151 145.362C288.201 145.673 287.228 145.947 286.257 146.177C286.057 146.224 285.934 146.425 285.981 146.625C286.024 146.806 286.192 146.925 286.372 146.911C286.391 146.909 286.41 146.906 286.428 146.902C287.419 146.667 288.413 146.387 289.382 146.07C289.578 146.006 289.684 145.795 289.62 145.6Z" fill="#96B6FA"/>
<path d="M310.073 127.299C310.134 127.328 310.199 127.339 310.261 127.334C310.389 127.324 310.508 127.247 310.567 127.122C311.003 126.197 311.404 125.243 311.759 124.286C311.831 124.093 311.733 123.878 311.541 123.806C311.349 123.733 311.135 123.831 311.063 124.024C310.715 124.961 310.323 125.895 309.896 126.802C309.808 126.988 309.887 127.211 310.073 127.299Z" fill="#96B6FA"/>
<path d="M312.69 119.769C312.728 119.777 312.765 119.78 312.802 119.777C312.96 119.764 313.098 119.65 313.134 119.487C313.357 118.49 313.539 117.471 313.676 116.459C313.704 116.255 313.562 116.067 313.358 116.039C313.154 116.011 312.968 116.153 312.94 116.358C312.806 117.349 312.627 118.347 312.409 119.323C312.364 119.524 312.49 119.724 312.69 119.769Z" fill="#96B6FA"/>
<path d="M296.816 142.16C296.71 141.983 296.482 141.925 296.306 142.031C295.453 142.543 294.565 143.025 293.668 143.464C293.483 143.554 293.407 143.778 293.497 143.963C293.566 144.105 293.713 144.183 293.861 144.172C293.906 144.168 293.951 144.156 293.994 144.135C294.91 143.687 295.817 143.194 296.688 142.672C296.864 142.566 296.921 142.337 296.816 142.16Z" fill="#96B6FA"/>
<path d="M273.528 146.923C273.036 146.858 272.546 146.782 272.07 146.698C271.868 146.664 271.674 146.798 271.638 147C271.602 147.202 271.737 147.395 271.94 147.431C272.426 147.516 272.926 147.594 273.428 147.661C273.455 147.664 273.482 147.665 273.508 147.663C273.679 147.649 273.823 147.518 273.847 147.341C273.875 147.138 273.732 146.951 273.528 146.923Z" fill="#96B6FA"/>
<path d="M249.622 133.01C249.334 132.619 249.049 132.214 248.774 131.807C248.659 131.637 248.428 131.592 248.256 131.706C248.085 131.821 248.039 132.052 248.154 132.222C248.435 132.638 248.726 133.051 249.02 133.45C249.1 133.558 249.227 133.61 249.351 133.6C249.418 133.595 249.484 133.572 249.542 133.529C249.708 133.408 249.744 133.175 249.622 133.01Z" fill="#96B6FA"/>
<path d="M257.282 82.8011C257.163 82.6336 256.931 82.5948 256.764 82.7136C255.95 83.2969 255.15 83.923 254.387 84.5745C254.231 84.7077 254.212 84.9432 254.345 85.1006C254.426 85.1958 254.543 85.2406 254.658 85.2313C254.733 85.2253 254.807 85.1963 254.869 85.1438C255.616 84.5061 256.398 83.893 257.195 83.322C257.362 83.2022 257.401 82.9694 257.282 82.8011Z" fill="#96B6FA"/>
<path d="M244.027 102.061C244.086 101.864 243.974 101.656 243.777 101.596C243.581 101.536 243.374 101.649 243.315 101.847C243.028 102.811 242.779 103.798 242.574 104.782C242.532 104.984 242.661 105.181 242.861 105.224C242.897 105.231 242.933 105.233 242.968 105.231C243.127 105.218 243.266 105.101 243.301 104.936C243.502 103.972 243.746 103.005 244.027 102.061Z" fill="#96B6FA"/>
<path d="M249.319 90.9804C249.421 90.9721 249.519 90.9216 249.586 90.8327C250.174 90.0436 250.802 89.2712 251.453 88.5365C251.589 88.3825 251.575 88.1463 251.422 88.0086C251.269 87.8715 251.034 87.8851 250.898 88.0384C250.233 88.789 249.592 89.5775 248.991 90.3832C248.868 90.5481 248.902 90.7825 249.066 90.9067C249.142 90.9639 249.232 90.9875 249.319 90.9804Z" fill="#96B6FA"/>
<path d="M246.994 94.8884C247.094 94.7082 247.03 94.4806 246.851 94.3798C246.671 94.279 246.445 94.3434 246.346 94.5235C245.859 95.4027 245.403 96.313 244.991 97.2296C244.907 97.4177 244.99 97.6391 245.177 97.7242C245.236 97.7517 245.299 97.7615 245.36 97.7566C245.49 97.7461 245.611 97.6668 245.668 97.5388C246.072 96.6407 246.518 95.7491 246.994 94.8884Z" fill="#96B6FA"/>
<path d="M264.145 79.0064C264.065 78.8168 263.847 78.7257 263.658 78.8073C262.732 79.1977 261.815 79.6311 260.93 80.0947C260.748 80.1899 260.678 80.4152 260.773 80.5979C260.844 80.7343 260.988 80.8083 261.132 80.7969C261.18 80.7929 261.229 80.7797 261.274 80.7555C262.141 80.3015 263.04 79.8772 263.947 79.4945C264.136 79.4147 264.225 79.1961 264.145 79.0064Z" fill="#96B6FA"/>
<path d="M243.07 117.465C243.039 117.261 242.852 117.121 242.646 117.153C242.442 117.184 242.303 117.374 242.334 117.577C242.485 118.567 242.681 119.565 242.915 120.542C242.959 120.722 243.127 120.84 243.306 120.826C243.326 120.824 243.345 120.821 243.364 120.817C243.564 120.769 243.687 120.567 243.639 120.368C243.41 119.411 243.218 118.434 243.07 117.465Z" fill="#96B6FA"/>
<path d="M242.693 109.71C242.708 109.504 242.553 109.326 242.348 109.312C242.144 109.297 241.966 109.452 241.951 109.657C241.881 110.66 241.852 111.677 241.866 112.68C241.869 112.886 242.038 113.051 242.243 113.048C242.252 113.048 242.26 113.047 242.268 113.047C242.462 113.031 242.613 112.868 242.61 112.67C242.596 111.688 242.624 110.692 242.693 109.71Z" fill="#96B6FA"/>
<path d="M246.326 127.656C245.895 126.777 245.496 125.866 245.138 124.949C245.064 124.757 244.847 124.664 244.655 124.737C244.463 124.812 244.368 125.027 244.443 125.219C244.808 126.155 245.216 127.085 245.656 127.983C245.725 128.124 245.872 128.202 246.021 128.19C246.066 128.186 246.111 128.174 246.154 128.153C246.339 128.063 246.416 127.84 246.326 127.656Z" fill="#96B6FA"/>
<path d="M279.5 76.268C279.509 76.0624 279.349 75.8895 279.143 75.8809C278.139 75.8386 277.121 75.8389 276.118 75.8817C275.909 75.8872 275.753 76.0636 275.762 76.2692C275.77 76.4743 275.944 76.6336 276.15 76.6248C277.131 76.5828 278.128 76.5828 279.111 76.6239C279.127 76.6248 279.142 76.6243 279.158 76.6231C279.342 76.6082 279.492 76.4577 279.5 76.268Z" fill="#96B6FA"/>
<path d="M271.671 76.7868C271.634 76.5848 271.441 76.4527 271.238 76.4867C270.254 76.6651 269.263 76.8883 268.291 77.1503C268.093 77.204 267.976 77.4083 268.029 77.6069C268.076 77.783 268.242 77.8951 268.418 77.8812C268.44 77.8794 268.463 77.8757 268.485 77.8696C269.437 77.6128 270.408 77.3942 271.371 77.2197C271.573 77.1832 271.708 76.9893 271.671 76.7868Z" fill="#96B6FA"/>
<path d="M285.529 76.6717C285.037 76.562 284.54 76.4617 284.053 76.3739C283.849 76.3372 283.656 76.4718 283.619 76.674C283.583 76.8758 283.717 77.0692 283.92 77.1057C284.397 77.1914 284.883 77.2896 285.365 77.3972C285.403 77.4054 285.44 77.4078 285.477 77.4049C285.635 77.3921 285.774 77.2786 285.811 77.1154C285.856 76.9151 285.73 76.7166 285.529 76.6717Z" fill="#96B6FA"/>
<path d="M287.227 86.1623C287.063 86.0824 286.866 86.1152 286.737 86.2441L283.055 89.9208C280.686 89.3812 278.214 89.2153 275.726 89.4682L272.524 85.3714C272.412 85.2277 272.221 85.1712 272.048 85.2305L266.147 87.2609C265.974 87.3203 265.858 87.4826 265.858 87.6648L265.855 92.8647C263.738 94.1962 261.891 95.8478 260.355 97.731L255.191 97.0979C255.01 97.0759 254.835 97.1708 254.755 97.3347L252.017 102.944C251.937 103.108 251.97 103.304 252.099 103.433L255.776 107.115C255.236 109.484 255.07 111.956 255.323 114.444L251.226 117.646C251.083 117.759 251.026 117.95 251.085 118.122L253.116 124.024C253.175 124.196 253.338 124.312 253.52 124.312L258.72 124.316C260.051 126.433 261.703 128.279 263.586 129.815L262.953 134.98C262.931 135.16 263.026 135.336 263.19 135.416L268.799 138.153C268.963 138.233 269.159 138.2 269.288 138.071L272.97 134.395C275.339 134.934 277.811 135.1 280.299 134.847L283.501 138.944C283.614 139.088 283.805 139.144 283.977 139.085L289.879 137.055C290.051 136.995 290.167 136.833 290.167 136.65L290.171 131.451C292.288 130.119 294.134 128.467 295.67 126.584L300.835 127.217C301.016 127.24 301.191 127.144 301.271 126.98L304.008 121.372C304.088 121.208 304.055 121.011 303.926 120.882L300.25 117.2C300.789 114.831 300.955 112.359 300.702 109.871L304.799 106.669C304.943 106.557 304.999 106.366 304.94 106.193L302.909 100.292C302.85 100.119 302.688 100.003 302.506 100.003L297.306 99.9995C295.974 97.8829 294.322 96.036 292.439 94.5004L293.072 89.3359C293.095 89.1549 292.999 88.9797 292.835 88.8996L287.227 86.1623Z" fill="#96B6FA"/>
<path d="M278.506 118.241C277.929 118.287 277.343 118.25 276.76 118.128C275.166 117.793 273.797 116.858 272.906 115.494C272.014 114.13 271.708 112.5 272.042 110.906C272.377 109.311 273.312 107.942 274.676 107.051C276.04 106.16 277.67 105.853 279.265 106.187C280.859 106.522 282.228 107.457 283.119 108.822C284.011 110.186 284.317 111.815 283.983 113.41C283.648 115.005 282.713 116.374 281.349 117.265C280.483 117.831 279.509 118.161 278.506 118.241ZM277.609 107.188C276.79 107.254 275.995 107.524 275.287 107.986C274.173 108.714 273.409 109.832 273.135 111.135C272.862 112.438 273.112 113.769 273.841 114.883C274.569 115.998 275.687 116.762 276.99 117.035C278.292 117.309 279.624 117.058 280.738 116.33C281.852 115.602 282.617 114.484 282.89 113.181C283.163 111.878 282.913 110.547 282.185 109.432C281.456 108.318 280.338 107.554 279.035 107.28C278.56 107.181 278.081 107.151 277.609 107.188ZM274.982 107.518L274.985 107.518L274.982 107.518Z" fill="#C0D2FB"/>
<path d="M279.21 127.852C272.276 128.405 265.563 124.238 263.197 117.364C262.761 116.095 262.498 114.808 262.396 113.529C261.841 106.594 266.009 99.8792 272.884 97.5136C273.008 97.4712 273.132 97.4304 273.257 97.3909C274.097 97.1251 274.957 96.9299 275.821 96.8092C275.923 96.7949 276.024 96.7817 276.125 96.7696L276.257 97.8787C275.241 98.0003 274.228 98.2327 273.248 98.5699C273.238 98.5728 273.229 98.5761 273.22 98.5794C265.677 101.192 261.655 109.449 264.253 117C266.855 124.561 275.122 128.595 282.684 125.994C289.067 123.798 292.937 117.563 292.422 111.125C292.327 109.936 292.083 108.742 291.678 107.564C290.823 105.079 289.313 102.875 287.312 101.192L288.031 100.337C290.187 102.15 291.813 104.524 292.734 107.201C293.17 108.469 293.433 109.756 293.535 111.036C294.09 117.97 289.922 124.685 283.047 127.051C281.778 127.487 280.49 127.75 279.21 127.852Z" fill="#C0D2FB"/>
</g>
<g opacity="0.922612">
<path d="M245.355 51.0539C245.338 51.1236 245.289 51.1842 245.217 51.2116C244.939 51.3172 244.662 51.4288 244.395 51.5437C244.281 51.5926 244.149 51.5403 244.1 51.4271C244.051 51.3137 244.103 51.1823 244.217 51.1336C244.49 51.0163 244.773 50.9021 245.056 50.7942C245.172 50.7503 245.302 50.808 245.346 50.9232C245.363 50.9665 245.365 51.0119 245.355 51.0539Z" fill="#96B6FA"/>
<path d="M272.181 80.4586C272.178 80.4739 272.173 80.4891 272.166 80.5039C272.035 80.7779 271.899 81.0493 271.761 81.3107C271.703 81.4198 271.567 81.4616 271.458 81.404C271.348 81.3464 271.307 81.2111 271.364 81.1021C271.499 80.8461 271.633 80.5802 271.761 80.3117C271.814 80.2002 271.948 80.153 272.059 80.2061C272.156 80.2521 272.205 80.3585 272.181 80.4586Z" fill="#96B6FA"/>
<path d="M259.538 91.5112C259.52 91.5842 259.467 91.6467 259.39 91.6721C259.107 91.7663 258.816 91.8562 258.525 91.9394C258.406 91.9736 258.282 91.9051 258.248 91.7865C258.214 91.6677 258.282 91.5442 258.401 91.5101C258.685 91.4286 258.97 91.3406 259.248 91.2483C259.365 91.2093 259.492 91.2727 259.532 91.3897C259.546 91.4304 259.547 91.4722 259.538 91.5112Z" fill="#96B6FA"/>
<path d="M254.796 49.7744C254.799 49.7635 254.8 49.7525 254.801 49.7412C254.811 49.618 254.72 49.5101 254.596 49.5002C253.986 49.451 253.365 49.4274 252.75 49.4299C252.626 49.4305 252.528 49.5309 252.527 49.6545C252.528 49.778 252.629 49.8777 252.752 49.8772C253.355 49.8746 253.963 49.8977 254.56 49.946C254.672 49.9549 254.771 49.8802 254.796 49.7744Z" fill="#96B6FA"/>
<path d="M274.089 70.8892C273.965 70.8901 273.865 70.9906 273.867 71.1148C273.871 71.7162 273.849 72.3244 273.803 72.9229C273.794 73.0462 273.886 73.1539 274.009 73.1634C274.12 73.1721 274.219 73.0971 274.244 72.9912C274.246 72.9803 274.248 72.9689 274.249 72.9573C274.296 72.3464 274.318 71.7253 274.314 71.1114C274.313 70.9878 274.212 70.8883 274.089 70.8892Z" fill="#96B6FA"/>
<path d="M273.334 75.8246C273.334 75.8255 273.334 75.8264 273.334 75.8273C273.203 76.4148 273.048 77.0019 272.869 77.5731C272.831 77.6931 272.898 77.8165 273.016 77.8533C273.134 77.8902 273.259 77.8247 273.296 77.7067C273.452 77.2105 273.591 76.7011 273.71 76.1927C273.731 76.1033 273.751 76.0138 273.771 75.924C273.798 75.8034 273.721 75.6841 273.601 75.6574C273.481 75.6309 273.362 75.7055 273.334 75.8246Z" fill="#96B6FA"/>
<path d="M249.754 49.6126C249.144 49.6983 248.532 49.811 247.935 49.9474C247.815 49.9749 247.74 50.0946 247.767 50.215C247.795 50.3353 247.915 50.4105 248.036 50.3828C248.621 50.2494 249.22 50.1389 249.817 50.055C249.911 50.0418 249.983 49.9719 250.004 49.8849C250.01 49.8586 250.011 49.8309 250.007 49.8026C249.99 49.6804 249.876 49.5953 249.754 49.6126Z" fill="#96B6FA"/>
<path d="M259.208 50.8925C259.325 50.9296 259.451 50.8643 259.488 50.7464C259.49 50.7409 259.491 50.7354 259.493 50.7298C259.519 50.617 259.455 50.501 259.342 50.4656C258.826 50.3026 258.298 50.1575 257.772 50.0344C257.702 50.018 257.631 50.002 257.561 49.9862C257.441 49.9595 257.322 50.0344 257.294 50.1538C257.294 50.1545 257.294 50.1552 257.294 50.1561C257.267 50.2768 257.343 50.3964 257.463 50.4232C257.532 50.4385 257.601 50.4545 257.67 50.4705C258.185 50.591 258.702 50.7329 259.208 50.8925Z" fill="#96B6FA"/>
<path d="M271.899 61.6224C271.787 61.6769 271.742 61.8114 271.796 61.9229C272.058 62.4645 272.3 63.0234 272.514 63.5842C272.558 63.6998 272.687 63.7575 272.802 63.7128C272.874 63.685 272.923 63.6243 272.94 63.5543C272.949 63.512 272.947 63.4662 272.931 63.4225C272.712 62.8498 272.465 62.2787 272.197 61.7256C272.143 61.614 272.009 61.5679 271.899 61.6224Z" fill="#96B6FA"/>
<path d="M267.618 55.7188C267.645 55.6889 267.664 55.6537 267.672 55.6166C267.69 55.541 267.668 55.4584 267.608 55.4014C267.162 54.9801 266.694 54.5735 266.216 54.1927C266.119 54.1158 265.979 54.1324 265.903 54.2296C265.826 54.3268 265.842 54.468 265.939 54.5449C266.407 54.9178 266.866 55.3163 267.302 55.729C267.392 55.8138 267.533 55.8092 267.618 55.7188Z" fill="#96B6FA"/>
<path d="M269.631 57.6228C269.554 57.5261 269.414 57.5109 269.317 57.5886C269.222 57.6663 269.206 57.8075 269.283 57.9044C269.657 58.3744 270.016 58.8661 270.349 59.3656C270.417 59.4684 270.556 59.4958 270.659 59.4265C270.707 59.3938 270.739 59.345 270.752 59.2919C270.765 59.2331 270.756 59.169 270.72 59.1149C270.38 58.605 270.014 58.1029 269.631 57.6228Z" fill="#96B6FA"/>
<path d="M263.832 52.7755C263.844 52.7555 263.852 52.7344 263.857 52.713C263.879 52.6199 263.839 52.5196 263.753 52.4687C263.225 52.158 262.678 51.8664 262.126 51.6022C262.015 51.549 261.881 51.5964 261.828 51.7082C261.775 51.8205 261.822 51.9537 261.933 52.007C262.474 52.2658 263.01 52.5513 263.527 52.8555C263.633 52.9181 263.77 52.8822 263.832 52.7755Z" fill="#96B6FA"/>
<path d="M273.515 66.1318C273.395 66.16 273.32 66.2807 273.348 66.4011C273.483 66.9854 273.596 67.5842 273.681 68.1805C273.699 68.3031 273.812 68.388 273.934 68.3701C274.028 68.3566 274.099 68.2864 274.12 68.1992C274.126 68.1727 274.127 68.1445 274.123 68.116C274.036 67.507 273.921 66.8958 273.783 66.2991C273.755 66.1786 273.635 66.1037 273.515 66.1318Z" fill="#96B6FA"/>
<path d="M232.119 77.2433C232.001 77.2812 231.937 77.4076 231.973 77.5255C232.156 78.1014 232.365 78.6766 232.595 79.2357C232.642 79.3501 232.772 79.4044 232.886 79.3569C232.955 79.328 233.002 79.2684 233.018 79.2006C233.028 79.1563 233.025 79.1086 233.007 79.0635C232.782 78.5161 232.577 77.9528 232.399 77.389C232.361 77.2709 232.236 77.2057 232.119 77.2433Z" fill="#96B6FA"/>
<path d="M240.545 88.4995C240.444 88.4296 240.305 88.4557 240.235 88.5579C240.165 88.66 240.191 88.7997 240.293 88.8697C240.789 89.2115 241.306 89.5362 241.828 89.8344C241.936 89.8957 242.072 89.8578 242.133 89.7502C242.144 89.7309 242.151 89.7109 242.156 89.6905C242.178 89.5961 242.137 89.4947 242.049 89.4445C241.538 89.1523 241.032 88.8343 240.545 88.4995Z" fill="#96B6FA"/>
<path d="M231.271 72.604C231.149 72.6151 231.057 72.7237 231.069 72.8474C231.122 73.4506 231.201 74.0573 231.303 74.6505C231.324 74.7724 231.44 74.854 231.562 74.8329C231.652 74.8169 231.721 74.7478 231.741 74.6629C231.747 74.6344 231.749 74.6041 231.743 74.5735C231.643 73.9925 231.566 73.3983 231.513 72.8073C231.503 72.6841 231.394 72.5931 231.271 72.604Z" fill="#96B6FA"/>
<path d="M235.261 83.3452C235.275 83.2849 235.265 83.2189 235.227 83.1643C234.888 82.6792 234.566 82.174 234.27 81.6631C234.208 81.556 234.071 81.5201 233.965 81.5827C233.859 81.6452 233.823 81.7831 233.885 81.8899C234.187 82.4118 234.515 82.9276 234.861 83.4229C234.932 83.5244 235.071 83.5487 235.172 83.4774C235.218 83.4444 235.249 83.3968 235.261 83.3452Z" fill="#96B6FA"/>
<path d="M237.032 85.426C236.948 85.3353 236.806 85.3305 236.716 85.415C236.626 85.4998 236.62 85.6417 236.704 85.7323C237.114 86.175 237.547 86.6055 237.991 87.0121C238.083 87.0955 238.224 87.0885 238.307 86.9966C238.333 86.9675 238.35 86.9332 238.359 86.8973C238.377 86.8205 238.354 86.7363 238.292 86.6795C237.856 86.2813 237.432 85.8596 237.032 85.426Z" fill="#96B6FA"/>
<path d="M231.452 67.8903C231.329 67.8743 231.218 67.9608 231.201 68.0834C231.123 68.6797 231.069 69.2885 231.041 69.8933C231.036 70.0167 231.131 70.1215 231.254 70.1272C231.364 70.1322 231.458 70.0577 231.482 69.9547C231.485 69.9415 231.487 69.9278 231.488 69.9139C231.515 69.3217 231.568 68.7253 231.644 68.1414C231.66 68.0189 231.574 67.9064 231.452 67.8903Z" fill="#96B6FA"/>
<path d="M255.567 92.089C254.983 92.1731 254.387 92.2339 253.795 92.2696C253.671 92.2769 253.578 92.3832 253.585 92.5061C253.593 92.6292 253.699 92.723 253.822 92.7156C254.427 92.6792 255.035 92.6172 255.632 92.5312C255.726 92.5177 255.797 92.4479 255.818 92.3611C255.824 92.3347 255.825 92.3067 255.821 92.2781C255.803 92.1561 255.69 92.0713 255.567 92.089Z" fill="#96B6FA"/>
<path d="M232.661 63.3313C232.545 63.2886 232.416 63.3482 232.374 63.4639C232.165 64.0301 231.979 64.6116 231.82 65.1923C231.785 65.313 231.857 65.4342 231.977 65.4669C232.096 65.4996 232.219 65.4295 232.252 65.3105C232.408 64.742 232.59 64.1727 232.794 63.6184C232.797 63.6097 232.8 63.6007 232.802 63.5918C232.827 63.4835 232.769 63.3707 232.661 63.3313Z" fill="#96B6FA"/>
<path d="M249.135 92.01C249.012 91.9904 248.898 92.0721 248.878 92.1957C248.859 92.3177 248.942 92.4325 249.064 92.4519C249.659 92.5466 250.266 92.6172 250.868 92.6617C250.98 92.6699 251.078 92.5953 251.103 92.4901C251.106 92.4788 251.107 92.467 251.108 92.4552C251.117 92.3319 251.025 92.2248 250.902 92.2156C250.311 92.172 249.717 92.1027 249.135 92.01Z" fill="#96B6FA"/>
<path d="M244.645 90.7326C244.531 90.6869 244.401 90.743 244.355 90.8577C244.309 90.9725 244.365 91.1029 244.479 91.1487C245.039 91.3727 245.615 91.5753 246.191 91.7508C246.309 91.7868 246.434 91.72 246.47 91.6016C246.471 91.5968 246.472 91.592 246.474 91.5871C246.5 91.4733 246.434 91.3568 246.321 91.3221C245.757 91.1503 245.194 90.952 244.645 90.7326Z" fill="#96B6FA"/>
<path d="M234.47 60.1445C234.465 60.1659 234.456 60.1869 234.445 60.2069C234.294 60.4619 234.149 60.7212 234.012 60.9778C233.954 61.0865 233.818 61.1276 233.709 61.0697C233.599 61.0115 233.558 60.8767 233.616 60.7673C233.756 60.5056 233.905 60.2405 234.058 59.9802C234.121 59.8739 234.258 59.8384 234.365 59.901C234.452 59.9519 234.492 60.0518 234.47 60.1445Z" fill="#96B6FA"/>
<path d="M239.635 61.0446C239.56 61.1238 239.542 61.2425 239.592 61.3398L241.023 64.1205C240.281 65.3781 239.734 66.7631 239.423 68.2337L236.492 69.3171C236.389 69.3551 236.322 69.4542 236.324 69.5638L236.406 73.3139C236.409 73.4235 236.48 73.5195 236.585 73.5529L239.561 74.5066C239.936 75.9621 240.543 77.3218 241.34 78.5455L240.033 81.3863C239.987 81.4859 240.009 81.6035 240.088 81.6793L242.799 84.2728C242.878 84.3486 242.997 84.3658 243.094 84.3156L245.874 82.8846C247.132 83.6272 248.517 84.1745 249.988 84.485L251.071 87.4165C251.109 87.5193 251.208 87.5866 251.318 87.5843L255.068 87.5018C255.178 87.4994 255.273 87.4278 255.307 87.3234L256.261 84.3471C257.716 83.9723 259.076 83.3648 260.299 82.5677L263.14 83.8753C263.24 83.921 263.357 83.8988 263.433 83.8196L266.027 81.1095C266.103 81.0303 266.12 80.9117 266.07 80.8142L264.638 78.0337C265.381 76.7762 265.928 75.3909 266.239 73.9205L269.171 72.837C269.273 72.799 269.341 72.7 269.338 72.5905L269.256 68.8401C269.254 68.7305 269.182 68.6346 269.077 68.6011L266.101 67.6474C265.726 66.192 265.119 64.8323 264.322 63.6085L265.629 60.7679C265.675 60.6684 265.653 60.5506 265.574 60.4748L262.863 57.8813C262.784 57.8056 262.666 57.7883 262.568 57.8385L259.788 59.2694C258.53 58.5269 257.145 57.9797 255.674 57.6691L254.591 54.7375C254.553 54.6348 254.454 54.5674 254.344 54.5699L250.594 54.6523C250.485 54.6547 250.389 54.7262 250.355 54.8307L249.401 57.8069C247.946 58.1817 246.586 58.7895 245.363 59.5865L242.522 58.2789C242.422 58.233 242.305 58.2554 242.229 58.3346L239.635 61.0446Z" fill="#96B6FA"/>
<path d="M256.404 71.9077C256.325 72.2463 256.196 72.5755 256.02 72.8865C255.537 73.7382 254.751 74.3507 253.806 74.6112C252.862 74.8718 251.874 74.7491 251.022 74.2658C250.17 73.7824 249.557 72.9964 249.297 72.0523C249.036 71.1084 249.159 70.1193 249.642 69.2675C250.126 68.4158 250.912 67.8032 251.856 67.5429C252.8 67.2822 253.789 67.4049 254.641 67.8883C255.492 68.3717 256.105 69.1577 256.365 70.1018C256.531 70.701 256.542 71.3187 256.404 71.9077ZM249.913 70.3984C249.8 70.8796 249.809 71.384 249.944 71.8739C250.157 72.6451 250.657 73.2872 251.353 73.682C252.049 74.0768 252.857 74.1771 253.628 73.9643C254.399 73.7514 255.041 73.251 255.436 72.5552C255.831 71.8594 255.931 71.0515 255.718 70.2802C255.506 69.509 255.005 68.8669 254.309 68.4721C253.614 68.0772 252.806 67.9769 252.034 68.1898C251.263 68.4027 250.621 68.903 250.226 69.5988C250.082 69.8528 249.977 70.1217 249.913 70.3984ZM249.621 71.9631L249.621 71.9609L249.621 71.9631Z" fill="#C0D2FB"/>
<path d="M262.034 73.2647C261.082 77.3355 257.467 80.4165 253.099 80.5124C252.293 80.5302 251.508 80.4452 250.757 80.2696C246.686 79.3178 243.604 75.7027 243.508 71.3339C243.506 71.2554 243.506 71.1769 243.506 71.0983C243.508 70.5687 243.553 70.0406 243.642 69.5235C243.653 69.463 243.664 69.4027 243.675 69.3426L244.334 69.4697C244.218 70.0742 244.166 70.6965 244.179 71.3193C244.179 71.3251 244.179 71.331 244.18 71.3368C244.295 76.1333 248.286 79.9468 253.084 79.8413C257.889 79.7357 261.711 75.7414 261.606 70.9363C261.517 66.8802 258.656 63.5236 254.876 62.6397C254.178 62.4767 253.45 62.3978 252.701 62.4142C251.122 62.449 249.584 62.9098 248.254 63.7472L247.897 63.1792C249.329 62.2772 250.985 61.7806 252.686 61.7432C253.493 61.7255 254.277 61.8103 255.029 61.9862C259.1 62.9379 262.181 66.5529 262.278 70.9216C262.295 71.728 262.21 72.5134 262.034 73.2647Z" fill="#C0D2FB"/>
</g>
<g opacity="0.922612">
<path d="M63.8696 278.992C63.8696 281.313 65.7706 283.212 68.0941 283.212H296.537C298.861 283.212 300.762 281.313 300.762 278.992L302.663 147.711C302.663 145.39 299.928 140.859 294.916 141.199L71.6559 135.422C68.7406 135.347 65.9219 136.469 63.8574 138.527C61.7931 140.584 60.6633 143.398 60.7322 146.31L63.8696 278.992Z" fill="#1E147E"/>
<path d="M68.0402 274.942C68.0402 277.141 69.8386 278.939 72.0369 278.939H291.028C293.227 278.939 295.025 277.141 295.025 274.942L296.819 155.765C296.608 148.593 290.32 146.016 286.508 146.168L72.5339 140.427C70.4858 140.372 68.5056 141.162 67.055 142.608C65.6043 144.055 64.8065 146.036 64.8579 148.084L68.0402 274.942Z" fill="#96B6FA"/>
<path d="M292.659 218.325H292.653C292.326 218.32 292.068 218.054 292.073 217.73L292.215 208.065C292.219 207.745 292.481 207.488 292.8 207.488H292.809C293.132 207.493 293.391 207.759 293.386 208.083L293.244 217.748C293.239 218.068 292.978 218.325 292.659 218.325Z" fill="#C0D2FB"/>
<path d="M293.006 194.641H292.998C292.674 194.636 292.416 194.369 292.421 194.046L292.964 157.029C292.954 154.83 292.286 153.074 290.98 151.822C288.542 149.486 284.67 149.606 284.507 149.613L216.116 147.779C215.793 147.771 215.538 147.502 215.546 147.178C215.555 146.855 215.804 146.58 216.148 146.609L284.498 148.443C284.923 148.418 289.045 148.346 291.791 150.977C293.335 152.456 294.124 154.495 294.135 157.034L293.592 194.064C293.587 194.384 293.326 194.641 293.006 194.641Z" fill="#C0D2FB"/>
<path d="M45.8857 294.11H314.114C314.416 294.11 314.663 293.863 314.663 293.561V283.124C314.663 282.822 314.416 282.575 314.114 282.575H45.8857C45.5839 282.575 45.3371 282.822 45.3371 283.124V293.561C45.3371 293.863 45.5839 294.11 45.8857 294.11Z" fill="#1E147E"/>
</g>
<g opacity="0.922612">
<path d="M112.378 83.795C112.378 75.7571 118.894 69.2411 126.932 69.2411H250.699C257.527 69.2411 263.157 74.5921 263.505 81.4114L272.64 260.85C272.912 266.187 268.711 270.688 263.369 270.785L121.516 273.363C116.496 273.454 112.378 269.41 112.378 264.39V83.795Z" fill="#5153F1"/>
<path d="M142.248 270.313H142.244L126.371 270.108C121.064 270.039 116.746 265.665 116.746 260.357V236.393C116.746 236.205 116.898 236.054 117.085 236.054C117.272 236.054 117.424 236.205 117.424 236.393V260.357C117.424 265.296 121.442 269.366 126.38 269.43L142.252 269.635C142.44 269.637 142.589 269.791 142.587 269.978C142.585 270.164 142.433 270.313 142.248 270.313Z" fill="#96B6FA"/>
<path d="M117.085 229.308C116.898 229.308 116.746 229.157 116.746 228.969V225.088C116.746 224.901 116.898 224.75 117.085 224.75C117.272 224.75 117.424 224.901 117.424 225.088V228.969C117.424 229.157 117.272 229.308 117.085 229.308Z" fill="#96B6FA"/>
<path d="M122.518 72.0031C122.503 69.4315 124.764 67.4411 127.312 67.7866C144.214 70.0787 202.334 77.1674 250.386 73.4787C252.578 73.3104 254.48 74.9708 254.596 77.1656L264.176 257.404C264.307 259.876 262.42 261.989 259.949 262.135C239.739 263.331 156.508 267.955 126.82 264.845C125.013 264.656 123.642 263.135 123.631 261.318L122.518 72.0031Z" fill="#839CF4"/>
<path d="M124.508 76.5197C124.494 74.0449 126.67 72.1294 129.123 72.4621C145.388 74.6678 201.319 81.4895 247.562 77.9397C249.671 77.7778 251.502 79.3757 251.614 81.4878L260.832 254.939C260.959 257.318 259.143 259.352 256.765 259.492C237.316 260.643 157.219 265.093 128.649 262.1C126.91 261.918 125.59 260.454 125.58 258.706L124.508 76.5197Z" fill="#C0D2FB"/>
<path d="M139.565 89.8926L141.293 127.079C141.35 128.316 142.349 129.299 143.587 129.334C150.474 129.528 171.934 130.052 184.051 129.42C185.422 129.349 186.506 128.24 186.552 126.868C186.783 119.894 187.288 99.5963 185.699 91.1111C185.442 89.7405 184.264 88.7362 182.871 88.6874L142.164 87.2639C140.696 87.2126 139.497 88.4254 139.565 89.8926Z" fill="white"/>
<path d="M241.407 93.1296C242.205 93.1296 242.841 92.5683 242.821 91.8821C242.801 91.196 242.132 90.623 241.334 90.6088L196.697 89.8134C195.899 89.7992 195.463 90.403 195.728 91.1554L195.942 91.7618C196.207 92.5141 197.076 93.1296 197.874 93.1296H241.407Z" fill="white"/>
<path d="M196.697 96.7458C195.899 96.7317 195.463 97.3355 195.728 98.0878L195.942 98.6943C196.207 99.4466 197.076 100.062 197.874 100.062H241.407C242.205 100.062 242.841 99.5008 242.821 98.8146C242.801 98.1285 242.132 97.5555 241.335 97.5413L196.697 96.7458Z" fill="white"/>
<path d="M196.697 103.779C195.899 103.765 195.463 104.369 195.728 105.121L195.942 105.727C196.207 106.48 197.076 107.095 197.874 107.095H241.407C242.205 107.095 242.841 106.534 242.821 105.848C242.801 105.162 242.132 104.589 241.335 104.574L196.697 103.779Z" fill="white"/>
<path d="M245.743 141.013C246.541 141.013 247.156 140.452 247.111 139.765C247.065 139.079 246.376 138.513 245.578 138.506L141.003 137.682C140.206 137.676 139.96 138.181 140.457 138.805L141.311 139.878C141.808 140.502 142.867 141.013 143.665 141.013H245.743Z" fill="white"/>
<path d="M141.003 146.575C140.206 146.569 139.96 147.074 140.457 147.698L141.311 148.771C141.808 149.395 142.867 149.906 143.665 149.906H245.743C246.541 149.906 247.156 149.344 247.111 148.658C247.065 147.972 246.376 147.406 245.578 147.399L141.003 146.575Z" fill="white"/>
<path d="M154.027 191.889H154.003L145.177 191.805C143.916 191.792 142.875 190.925 142.755 189.787L141.98 182.381C141.934 181.946 142.069 181.517 142.36 181.171C142.685 180.784 143.177 180.541 143.71 180.505C144.454 180.454 145.501 180.365 146.609 180.27C148.944 180.071 151.849 179.824 153.484 179.804C154.67 179.798 155.676 180.5 155.955 181.533C156.415 183.232 156.375 186.45 156.287 189.878C156.259 190.992 155.247 191.889 154.027 191.889ZM143.757 181.181C143.406 181.205 143.086 181.36 142.879 181.607C142.707 181.811 142.628 182.06 142.654 182.31L143.43 189.716C143.513 190.511 144.267 191.118 145.183 191.127L154.009 191.212H154.027C154.882 191.212 155.59 190.609 155.61 189.861C155.696 186.485 155.737 183.322 155.301 181.709C155.105 180.987 154.354 180.484 153.492 180.481C151.882 180.502 148.99 180.748 146.667 180.946C145.556 181.04 144.506 181.13 143.757 181.181Z" fill="white"/>
<path d="M144.706 181.945C146.56 181.818 150.59 181.409 152.501 181.386C153.311 181.375 154.021 181.865 154.211 182.567C154.58 183.931 154.531 186.649 154.467 189.159C154.448 189.91 153.758 190.51 152.915 190.502L145.862 190.434C144.995 190.426 144.274 189.834 144.194 189.064L143.574 183.147C143.51 182.534 144.019 181.992 144.706 181.945Z" fill="white"/>
<path d="M161.779 186.972C162.034 187.941 162.915 188.613 163.917 188.605L245.578 187.908C246.502 187.901 247.241 187.139 247.221 186.215C247.201 185.317 246.47 184.598 245.572 184.594L163.908 184.222C162.466 184.215 161.411 185.578 161.779 186.972Z" fill="white"/>
<path d="M154.027 210.806H154.003L145.177 210.721C143.916 210.709 142.875 209.841 142.755 208.703L141.98 201.298C141.934 200.863 142.069 200.433 142.36 200.087C142.685 199.701 143.177 199.458 143.71 199.421C144.454 199.37 145.501 199.281 146.609 199.187C148.944 198.988 151.849 198.741 153.484 198.72C153.496 198.72 153.507 198.72 153.519 198.72C154.68 198.72 155.679 199.427 155.955 200.449C156.415 202.149 156.375 205.367 156.287 208.795C156.259 209.908 155.247 210.806 154.027 210.806ZM143.757 200.097C143.406 200.121 143.086 200.277 142.879 200.524C142.707 200.727 142.628 200.977 142.654 201.227L143.43 208.632C143.513 209.428 144.267 210.034 145.183 210.043L154.009 210.128H154.027C154.882 210.128 155.59 209.525 155.61 208.777C155.696 205.401 155.737 202.238 155.301 200.626C155.105 199.903 154.343 199.384 153.492 199.398C151.882 199.418 148.99 199.664 146.667 199.862C145.556 199.957 144.506 200.046 143.757 200.097Z" fill="white"/>
<path d="M144.706 200.862C146.56 200.735 150.59 200.326 152.501 200.302C153.311 200.292 154.021 200.781 154.211 201.483C154.58 202.847 154.531 205.566 154.467 208.075C154.448 208.827 153.758 209.426 152.915 209.418L145.862 209.351C144.995 209.342 144.274 208.751 144.194 207.981L143.574 202.063C143.51 201.451 144.019 200.909 144.706 200.862Z" fill="white"/>
<path d="M161.779 205.888C162.034 206.857 162.915 207.53 163.917 207.521L245.578 206.825C246.502 206.817 247.241 206.055 247.221 205.131C247.201 204.233 246.47 203.515 245.572 203.51L163.908 203.138C162.466 203.131 161.411 204.495 161.779 205.888Z" fill="white"/>
<path d="M154.027 229.722H154.003L145.177 229.637C143.916 229.625 142.875 228.758 142.755 227.62L141.98 220.214C141.934 219.78 142.069 219.35 142.36 219.004C142.685 218.617 143.177 218.374 143.71 218.337C144.454 218.287 145.501 218.197 146.609 218.103C148.944 217.904 151.849 217.657 153.484 217.636C153.496 217.636 153.507 217.636 153.519 217.636C154.68 217.636 155.679 218.343 155.955 219.365C156.415 221.065 156.375 224.283 156.287 227.711C156.259 228.824 155.247 229.722 154.027 229.722ZM143.757 219.014C143.406 219.038 143.086 219.193 142.879 219.44C142.707 219.643 142.628 219.893 142.654 220.143L143.429 227.549C143.513 228.344 144.267 228.951 145.183 228.96L154.009 229.044H154.027C154.882 229.044 155.59 228.442 155.61 227.694C155.696 224.318 155.737 221.154 155.301 219.542C155.105 218.82 154.343 218.298 153.492 218.314C151.882 218.334 148.99 218.581 146.667 218.778C145.556 218.873 144.506 218.962 143.757 219.014Z" fill="white"/>
<path d="M144.706 219.778C146.56 219.651 150.59 219.242 152.501 219.218C153.311 219.208 154.021 219.697 154.211 220.4C154.58 221.764 154.531 224.482 154.467 226.991C154.448 227.743 153.758 228.343 152.915 228.334L145.862 228.267C144.995 228.258 144.274 227.667 144.194 226.897L143.574 220.979C143.51 220.367 144.019 219.825 144.706 219.778Z" fill="white"/>
<path d="M161.779 224.805C162.034 225.774 162.915 226.446 163.917 226.437L245.578 225.741C246.502 225.733 247.241 224.971 247.221 224.048C247.201 223.15 246.47 222.431 245.572 222.427L163.908 222.054C162.466 222.048 161.411 223.411 161.779 224.805Z" fill="white"/>
<path d="M154.027 248.638H154.003L145.177 248.553C143.916 248.541 142.875 247.674 142.755 246.536L141.98 239.13C141.934 238.696 142.069 238.266 142.36 237.92C142.685 237.533 143.177 237.29 143.71 237.253C144.454 237.203 145.501 237.113 146.609 237.019C148.944 236.82 151.849 236.573 153.484 236.553C153.496 236.553 153.507 236.552 153.519 236.552C154.68 236.552 155.679 237.259 155.955 238.281C156.415 239.981 156.375 243.199 156.287 246.627C156.259 247.741 155.247 248.638 154.027 248.638ZM143.757 237.93C143.406 237.954 143.086 238.109 142.879 238.356C142.707 238.56 142.628 238.809 142.654 239.06L143.429 246.465C143.513 247.26 144.267 247.867 145.183 247.876L154.009 247.96H154.027C154.882 247.96 155.59 247.358 155.61 246.61C155.696 243.234 155.737 240.07 155.301 238.458C155.105 237.736 154.343 237.212 153.492 237.23C151.882 237.25 148.99 237.497 146.667 237.695C145.556 237.789 144.506 237.879 143.757 237.93Z" fill="white"/>
<path d="M144.706 238.694C146.56 238.568 150.59 238.159 152.501 238.135C153.311 238.125 154.021 238.614 154.211 239.316C154.58 240.68 154.531 243.398 154.467 245.908C154.448 246.659 153.758 247.259 152.915 247.251L145.862 247.183C144.995 247.175 144.274 246.584 144.194 245.813L143.574 239.896C143.51 239.283 144.019 238.741 144.706 238.694Z" fill="white"/>
<path d="M161.779 243.721C162.034 244.69 162.915 245.362 163.917 245.354L245.578 244.657C246.502 244.65 247.241 243.888 247.221 242.964C247.201 242.066 246.47 241.347 245.572 241.343L163.908 240.971C162.466 240.964 161.411 242.327 161.779 243.721Z" fill="white"/>
<path d="M153.248 175.43H153.224L144.398 175.345C143.137 175.333 142.096 174.466 141.977 173.328L141.201 165.922C141.155 165.488 141.29 165.058 141.581 164.712C141.906 164.325 142.398 164.082 142.931 164.045C143.675 163.995 144.722 163.905 145.831 163.811C148.165 163.612 151.07 163.365 152.705 163.345C152.717 163.345 152.729 163.344 152.74 163.344C153.901 163.344 154.9 164.051 155.176 165.073C155.636 166.773 155.596 169.991 155.508 173.419C155.48 174.532 154.468 175.43 153.248 175.43ZM142.978 164.722C142.627 164.746 142.307 164.901 142.1 165.148C141.929 165.351 141.849 165.601 141.875 165.851L142.651 173.257C142.734 174.052 143.488 174.659 144.405 174.667L153.231 174.752H153.248C154.104 174.752 154.812 174.15 154.831 173.402C154.917 170.026 154.958 166.862 154.522 165.25C154.327 164.528 153.564 164.004 152.713 164.022C151.103 164.042 148.212 164.289 145.888 164.486C144.777 164.581 143.727 164.67 142.978 164.722Z" fill="#686868"/>
<path d="M143.927 165.486C145.781 165.359 149.811 164.95 151.722 164.926C152.532 164.916 153.242 165.406 153.432 166.108C153.801 167.472 153.752 170.19 153.688 172.7C153.669 173.451 152.979 174.051 152.136 174.043L145.083 173.975C144.216 173.967 143.496 173.375 143.415 172.605L142.795 166.687C142.731 166.075 143.24 165.533 143.927 165.486Z" fill="white"/>
<path d="M161 170.513C161.256 171.482 162.136 172.154 163.138 172.146L244.8 171.449C245.723 171.441 246.462 170.68 246.442 169.756C246.423 168.858 245.691 168.139 244.793 168.135L163.129 167.763C161.688 167.756 160.633 169.119 161 170.513Z" fill="white"/>
<path d="M196.492 44.7756C192.021 41.6654 188.134 41.727 185.397 42.5345C182.901 43.271 181.283 45.6811 181.52 48.273L182.701 61.1537L196.743 62.4001C196.743 62.4001 205.259 50.8751 196.492 44.7756ZM190.316 55.1673C188.382 55.1673 186.814 53.5997 186.814 51.6657C186.814 49.7318 188.382 48.1641 190.316 48.1641C192.25 48.1641 193.817 49.7318 193.817 51.6657C193.817 53.5997 192.25 55.1673 190.316 55.1673Z" fill="#1E147E"/>
<path d="M184.103 55.7354C183.93 55.7354 183.782 55.6033 183.766 55.4272L183.578 53.3759C183.561 53.1896 183.698 53.0248 183.885 53.0075C184.075 52.9897 184.236 53.1277 184.253 53.3144L184.441 55.3657C184.458 55.552 184.321 55.7168 184.134 55.734C184.124 55.735 184.113 55.7354 184.103 55.7354ZM183.735 51.7153C183.562 51.7153 183.414 51.5833 183.398 51.4072L183.255 49.8499C183.029 47.381 184.582 45.0821 186.949 44.3835C188.625 43.8888 190.352 43.8179 192.081 44.1728C192.265 44.2102 192.383 44.3895 192.345 44.5728C192.308 44.7558 192.13 44.8729 191.945 44.8365C190.325 44.5049 188.709 44.5708 187.141 45.0335C185.083 45.6406 183.733 47.6404 183.93 49.7884L184.073 51.3457C184.09 51.532 183.952 51.6968 183.766 51.7141C183.756 51.715 183.745 51.7153 183.735 51.7153Z" fill="#96B6FA"/>
<path d="M163.534 69.478V63.0019C163.534 60.7664 165.387 58.9759 167.622 59.0524L212.272 60.5823C214.253 60.6501 215.858 62.2142 215.977 64.1933L216.35 70.416L163.534 69.478Z" fill="#1E147E"/>
<path d="M180.183 61.4926H178.263C178.076 61.4926 177.924 61.3411 177.924 61.1538C177.924 60.9665 178.076 60.8149 178.263 60.8149H180.183C180.371 60.8149 180.522 60.9665 180.522 61.1538C180.522 61.3411 180.371 61.4926 180.183 61.4926Z" fill="#96B6FA"/>
<path d="M165.951 67.4446C165.764 67.4446 165.612 67.293 165.612 67.1057V64.4859C165.612 62.4616 167.259 60.8149 169.283 60.8149H176.343C176.53 60.8149 176.682 60.9665 176.682 61.1538C176.682 61.3412 176.53 61.4927 176.343 61.4927H169.283C167.633 61.4927 166.29 62.8355 166.29 64.4859V67.1057C166.29 67.293 166.138 67.4446 165.951 67.4446Z" fill="#96B6FA"/>
<path d="M145.342 71.1134C145.449 68.8708 147.299 67.1079 149.544 67.1078L227.623 67.1057C230.431 67.1056 232.831 69.126 233.31 71.8924L233.376 72.2741C233.9 75.3042 231.567 78.0756 228.492 78.0756H148.388C146.547 78.0756 145.081 76.5368 145.169 74.6986L145.342 71.1134Z" fill="#5153F1"/>
<path d="M154.793 115.088V113.502C154.793 112.052 155.016 110.787 155.462 109.707C155.907 108.628 156.719 107.468 157.897 106.23C159.015 105.006 159.728 104.047 160.038 103.352C160.347 102.658 160.503 101.774 160.503 100.702C160.503 99.72 160.276 98.9197 159.823 98.3001C159.37 97.681 158.652 97.3712 157.671 97.3712C156.04 97.3712 154.325 97.9529 152.528 99.1157L150.398 94.5845C152.769 92.9686 155.397 92.1604 158.282 92.1604C160.774 92.1604 162.742 92.8514 164.184 94.2334C165.626 95.6153 166.348 97.5377 166.348 99.9993C166.348 101.721 166.099 103.182 165.6 104.383C165.102 105.584 164.067 107.03 162.496 108.722C161.484 109.824 160.838 110.674 160.559 111.27C160.279 111.867 160.14 112.679 160.14 113.706V115.088H154.793ZM153.729 122.655C153.729 121.462 154.049 120.544 154.692 119.902C155.333 119.261 156.266 118.939 157.489 118.939C158.728 118.939 159.664 119.268 160.299 119.925C160.933 120.582 161.25 121.492 161.25 122.655C161.25 123.803 160.925 124.709 160.276 125.374C159.626 126.038 158.697 126.37 157.489 126.37C156.281 126.37 155.352 126.045 154.703 125.396C154.053 124.747 153.729 123.833 153.729 122.655Z" fill="#FF877F"/>
</g>
<g opacity="0.773243">
<path d="M94.1655 316.572L94.5766 320.037C94.5766 320.037 96.9402 321.137 98.5544 319.898L97.5756 316.037L94.1655 316.572Z" fill="#FFABA8"/>
<path d="M94.4745 251.425C94.2968 252.33 93.5212 296.583 98.2514 316.414C98.3286 316.737 98.1646 317.071 97.8566 317.197C97.1312 317.493 95.7088 317.922 94.0041 317.98C93.4763 317.997 93.003 317.654 92.8541 317.147C91.502 312.546 85.023 289.494 84.1777 267.472C83.2332 242.865 84.1777 266.634 84.1777 266.634L84.7317 251.424L94.4745 251.425Z" fill="#5153F1"/>
<path d="M94.5848 318.274C94.5848 318.274 94.073 321.171 93.8222 324.039C93.7241 325.16 94.5882 326.133 95.7123 326.18C99.5312 326.339 107.7 326.648 110.631 326.517C111.072 326.497 111.36 326.046 111.197 325.636C111.06 325.293 110.797 325.015 110.461 324.861L96.9675 318.659L94.5848 318.274Z" fill="#1E147E"/>
<path d="M79.0628 319.785C79.0628 319.785 78.2483 321.248 77.4597 325.134C77.3173 325.836 77.8076 326.508 78.5204 326.578C79.7814 326.702 81.7227 326.861 83.2776 326.851C83.9945 326.846 84.5539 326.221 84.4676 325.51C84.2953 324.091 83.7587 321.764 82.1011 319.95L79.0628 319.785Z" fill="#1E147E"/>
<path d="M78.3474 315.328L79.3082 320.569C79.3082 320.569 80.2579 321.275 82.137 320.763L81.6786 315.125L78.3474 315.328Z" fill="#FFABA8"/>
<path d="M75.7522 252.783C71.8836 276.131 76.5914 310.489 78.1793 317.214C78.2764 317.626 78.6087 317.941 79.026 318.011C79.7348 318.128 80.9016 318.224 82.0519 317.89C82.4482 317.775 82.7267 317.417 82.7428 317.005C82.9559 311.568 82.5725 278.192 86.1773 265.001C86.3599 264.333 86.7681 263.75 87.333 263.348L94.3296 258.374L94.8659 250.334L75.7522 252.783Z" fill="#5153F1"/>
<path d="M99.3479 212.09C97.976 212.617 97.0339 213.264 96.5489 214.29C95.7153 216.054 96.8806 218.583 99.3017 219.629C101.02 220.372 103.198 220.295 104.508 219.835C104.508 219.835 104.565 219.814 106.407 219.11C110.569 216.906 113.583 214.451 115.746 211.933C112.117 210.788 109.339 208.596 107.866 207.231C105.155 209.291 102.172 211.004 99.3479 212.09Z" fill="#FF877F"/>
<path d="M100.404 208.543C88.8098 208.352 76.0175 211.588 76.0175 211.588C72.5616 231.753 75.4131 255.011 75.4131 255.011C84.3887 257.365 94.5137 253.572 94.5137 253.572C96.0056 245.144 102.966 221.423 102.966 221.423C104.401 217.728 103.98 208.603 100.404 208.543Z" fill="#FF877F"/>
<path d="M125.196 189.206C123.964 188.739 123.299 189.797 123.299 189.797C124.919 195.489 121.468 203.302 116.745 209.158C118.079 210.667 120.566 213.065 123.684 214.169C130.087 201.805 125.196 189.206 125.196 189.206Z" fill="#FFABA8"/>
<path d="M135.216 188.96C135.406 189.184 134.858 190.291 133.908 189.534C133.646 188.995 132.348 186.844 132.385 186.175C132.583 182.614 133.698 177.354 133.698 177.354C134.367 177.544 134.274 178.417 134.274 178.417L133.851 181.234C134.379 181.632 134.919 181.883 135.398 182.51C135.762 182.985 135.969 183.659 135.993 184.372C136.017 185.087 136.035 186.03 136.002 186.81C135.941 188.286 135.216 188.96 135.216 188.96Z" fill="#FFABA8"/>
<path d="M133.022 182.892L132.512 185.182L132.736 186.777L134.352 187.385C134.352 187.385 133.56 184.542 133.558 183.769C133.556 182.995 133.315 182.845 133.022 182.892Z" fill="#FFABA8"/>
<path d="M77.0222 225.295L77.4216 215.762C77.4216 215.762 67.7169 217.058 63.6224 223.007C64.9819 223.851 67.3763 225.568 69.3141 228.182C71.2199 225.358 77.0222 225.295 77.0222 225.295Z" fill="#FF877F"/>
<path d="M88.1517 237.377C88.1517 237.377 75.6164 238.415 73.7847 234.002C73.4045 233.085 73.5828 232.331 74.1026 231.711C71.4876 229.752 68.4211 228.536 66.6944 227.95C65.4058 229.456 64.7753 231.266 65.3199 233.427C67.6882 242.826 88.666 239.513 88.666 239.513L88.1517 237.377Z" fill="#FFABA8"/>
<path d="M87.8317 233.976L100.111 220.766C100.251 220.616 100.481 220.561 100.696 220.627C101.65 220.919 104.409 221.774 107.558 222.838C111.352 224.118 115.712 225.701 118.167 226.965C118.516 227.144 118.576 227.572 118.281 227.788C115.622 229.736 104.743 237.629 100.149 239.779C99.997 239.85 99.8132 239.851 99.6512 239.781L88.0492 234.755C87.7116 234.609 87.6035 234.221 87.8317 233.976Z" fill="#1E147E"/>
<path d="M105.382 216.191L109.833 216.854C110.071 216.89 110.184 217.079 110.042 217.201L109.209 217.915C109.136 217.977 109.014 218.004 108.894 217.983L104.654 217.257C104.435 217.22 104.324 217.049 104.44 216.927L105.061 216.275C105.128 216.205 105.255 216.172 105.382 216.191Z" fill="#96B6FA"/>
<path d="M101.361 218.798L102.27 217.763C102.362 217.659 102.559 217.608 102.757 217.638L111.906 219.019C112.214 219.066 112.374 219.279 112.219 219.436L110.972 220.701C110.872 220.803 110.669 220.848 110.473 220.812L101.661 219.201C101.375 219.148 101.227 218.95 101.361 218.798Z" fill="#96B6FA"/>
<path d="M89.1745 234.478C89.1745 234.478 89.676 231.632 90.3762 230.852C91.0765 230.071 92.158 229.147 93.8319 230.193C95.5059 231.238 97.3052 232.846 97.3052 232.846C97.3052 232.846 96.6482 233.975 95.4616 232.997L96.0325 233.956C96.0325 233.956 95.4711 234.844 94.5543 233.835L94.9763 234.96C94.9763 234.96 94.1197 235.516 93.5041 234.648C92.8885 233.78 91.435 235.839 89.1745 234.478Z" fill="#FFABA8"/>
<path d="M88.6601 199.131L84.9712 209.799C84.9101 209.976 84.9827 210.172 85.1464 210.262C86.1519 210.818 89.7748 212.425 94.1407 209.657C94.5955 209.369 94.905 208.899 94.9741 208.364L96.1688 199.131H88.6601Z" fill="#FFABA8"/>
<path d="M99.2759 192.89C99.2759 192.89 98.6681 199.819 96.9741 201.712C95.2801 203.604 92.0033 201.34 90.15 197.782L91.687 190.851L99.2759 192.89Z" fill="#FFABA8"/>
<path d="M89.7605 195.082C89.9149 195.103 90.0544 194.981 90.0539 194.825C90.0521 194.349 90.0847 193.401 90.3411 192.713C90.3411 192.713 90.055 192.087 92.0621 192.749C94.0692 193.409 97.0787 194.369 98.5834 193.204C100.051 192.068 101.01 187.508 96.9089 189.059C96.7529 189.118 96.5855 189.017 96.5724 188.852C96.5159 188.141 96.1968 186.54 94.4773 186.317C92.8682 186.108 92.1348 186.95 91.8531 187.429C91.7701 187.57 91.5807 187.602 91.4641 187.493C90.9122 186.977 89.4674 185.929 87.7546 187.067C86.3437 188.004 86.2518 188.976 86.3661 189.551C86.4032 189.737 86.2319 189.898 86.0486 189.85C85.5523 189.721 84.7896 189.745 84.2132 190.765C83.4162 192.177 84.9922 192.992 85.4588 193.196C85.5353 193.23 85.5902 193.298 85.6035 193.381C85.7065 194.022 86.2386 196.802 87.8888 198.127C88.0318 198.242 88.2506 198.161 88.2956 197.98L88.9814 195.212C89.0132 195.084 89.1374 194.998 89.2672 195.016L89.7605 195.082Z" fill="#1E147E"/>
<path d="M91.4435 197.161C91.4435 197.161 90.1365 194.884 89.2173 195.888C88.2982 196.892 90.1069 198.347 91.4537 198.427L91.4435 197.161Z" fill="#FFABA8"/>
</g>
<g opacity="0.773243">
<path d="M249.197 205.202C249.182 204.876 249.549 204.693 249.769 204.917C250.582 205.746 252.178 207.08 253.846 206.845C253.93 206.833 254.01 206.823 254.089 206.816C254.043 206.586 253.921 206.363 253.648 206.222C252.865 205.819 253.104 204.427 253.104 204.427C253.104 204.427 253.598 205.2 254.455 205.335C255.192 205.452 255.968 206.27 256.07 207.284C256.99 210.703 258.083 215.307 263.851 215.472C269.62 215.638 270.944 203.593 270.944 203.593L273.47 215.318C273.47 215.318 270.912 221.76 262.906 220.166C254.899 218.573 254.373 209.097 254.373 209.097C254.373 209.097 249.417 209.959 249.197 205.202Z" fill="#FFABA8"/>
<path d="M286.418 185.577C286.418 185.577 288.435 178.942 293.683 184.607C293.683 184.607 296.934 186.077 295.403 189.24C295.403 189.24 296.554 191.907 293.702 193.613C293.702 193.613 300.689 195.045 300.168 202.16C299.647 209.275 295.732 210.737 292.923 209.909C292.923 209.909 294.268 212.274 292.04 214.053C289.811 215.832 284.262 214.396 283.131 209.637C283.131 209.637 274.744 205.51 278.203 199.601C278.203 199.601 275.993 194.6 282.519 192.195C289.044 189.79 286.418 185.577 286.418 185.577Z" fill="#1E147E"/>
<path d="M276.775 206.307C278.722 205.723 284.391 204.645 289.784 209.621C290.698 210.465 291.072 211.748 290.746 212.949C289.298 218.281 285.476 234.034 288.827 240.851C288.827 240.851 282.922 247.36 276.481 242.114C276.481 242.114 273.59 229.517 269.805 223.987C267.191 220.169 273.972 209.651 275.688 207.109C275.948 206.725 276.331 206.44 276.775 206.307Z" fill="#FF877F"/>
<path d="M282.151 195.713C282.151 195.713 285.031 203.858 285.248 207.451C285.248 207.451 282.065 208.898 279.066 206.456C279.066 206.456 278.752 198.32 278.297 196.864L282.151 195.713Z" fill="#FFABA8"/>
<path d="M281.892 186.081C281.892 186.081 273.219 190.149 274.875 194.199C276.53 198.25 282.7 195.363 282.7 195.363C282.7 195.363 285.965 192.118 285.562 189.979C285.159 187.841 281.892 186.081 281.892 186.081Z" fill="#FFABA8"/>
<path d="M284.957 183.573C284.957 183.573 282.47 182.666 281.573 183.54C280.675 184.413 283.516 187.708 284.439 188.4L282.813 193.275C282.813 193.275 287.326 190.707 287.729 187.734C288.132 184.76 284.957 183.573 284.957 183.573Z" fill="#1E147E"/>
<path d="M284.547 192.524C284.547 192.524 287.942 191.413 287.882 193.293C287.821 195.172 284.501 194.826 284.01 193.624L284.547 192.524Z" fill="#FFABA8"/>
<path d="M268.961 268.562C268.983 269.133 267.979 273.669 267.432 276.089C267.212 277.062 267.366 278.081 267.861 278.947L286.785 310.797C287.014 311.182 287.181 311.599 287.282 312.036C287.629 313.53 288.348 317.193 287.973 320.526L286.994 322.559L291.227 321.597L292.149 310.228L290.95 309.497C289.914 308.866 289.108 307.922 288.647 306.8C286.935 302.644 282.686 292.063 281.591 286.907C280.346 281.047 273.838 276.287 273.838 276.287L274.982 273.584L268.961 268.562Z" fill="#FFABA8"/>
<path d="M295.933 317.685C295.933 317.685 293.646 314.06 293.377 312.649C293.108 311.238 292.359 308.747 290.95 309.497C290.95 309.497 290.286 316.351 290.515 319.029C290.744 321.707 287.487 321.621 287.487 321.621C287.487 321.621 286.589 321.747 285.932 322.404C285.478 322.858 285.803 323.645 286.443 323.687C287.509 323.755 289.202 323.773 290.979 323.43C291.6 323.31 292.061 322.781 292.098 322.15L292.568 314.261L295.452 317.903L295.933 317.685Z" fill="#1E147E"/>
<path d="M280.266 273.635C280.266 273.635 280.933 302.124 281.024 306.17C281.114 310.216 280.385 319.183 276.328 321.863L278.093 323.17C278.093 323.17 280.299 321.295 282.454 317.687C284.875 313.634 285.607 312.893 285.607 312.893L284.804 311.248C284.452 310.528 284.349 309.713 284.511 308.928C285.386 304.686 288.31 290.575 289.108 287.536C290.049 283.949 290.116 279.159 286.84 275.149C283.565 271.139 280.266 273.635 280.266 273.635Z" fill="#FFABA8"/>
<path d="M284.011 324.454C284.137 324.455 284.244 324.365 284.262 324.24C284.397 323.29 284.959 319.483 285.419 318.497C285.945 317.368 287.666 312.615 285.418 312.211C285.418 312.211 279.828 320.377 278.755 321.478C277.682 322.579 276.328 321.863 276.328 321.863C276.328 321.863 275.283 322.172 274.494 323.179C274.119 323.659 274.469 324.363 275.078 324.369L278.842 324.404C279.936 324.415 280.919 323.751 281.326 322.735C281.988 321.08 283.127 318.653 284.454 317.575L283.764 324.177C283.749 324.324 283.863 324.452 284.011 324.454Z" fill="#1E147E"/>
<path d="M275.59 239.042C275.59 239.042 276.438 241.746 275.135 246.2L267.05 274.433C266.923 274.877 267.162 275.341 267.597 275.497C270.015 276.365 277.965 278.818 288.818 278.07C289.364 278.032 289.822 277.646 289.941 277.111C290.656 273.892 293.096 262.91 293.598 260.654C295.512 252.056 297.65 242.784 288.247 237.177C283.914 239.033 279.873 240.127 275.59 239.042Z" fill="#1E147E"/>
<path d="M290.556 210.685C290.556 210.685 299.755 218.33 302.037 228.777C304.32 239.223 288.595 240.333 288.595 240.333C288.595 240.333 286.461 237.95 283.926 238.8C281.392 239.65 283.73 234.639 286.695 234.653C289.66 234.666 288.287 237.01 292.482 235.11C296.568 233.259 299.094 227.535 288.668 218.857C288.063 218.354 287.581 217.713 287.291 216.982C285.265 211.884 286.872 208.542 290.556 210.685Z" fill="#FFABA8"/>
</g>
</svg>
