<svg width="202" height="180" viewBox="0 0 202 180" fill="none" xmlns="http://www.w3.org/2000/svg">
<path d="M117.849 0.43385L110.362 2.30151L18.1125 25.312L10.6247 27.1796C3.05737 29.076 -1.495 36.5393 0.448536 43.8633L32.9166 165.645C34.8772 172.964 42.5934 177.367 50.1651 175.487L50.1845 175.483L157.37 148.747L157.39 148.742C164.957 146.846 169.509 139.382 167.566 132.058L135.098 10.2768C133.137 2.95727 125.421 -1.44605 117.849 0.43385Z" fill="#F2F2F2"/>
<path d="M118.867 4.25201L109.999 6.46434L20.5113 28.7857L11.6429 30.9978C6.25392 32.3483 3.01214 37.6632 4.39601 42.8786L36.8641 164.66C38.2603 169.872 43.7552 173.008 49.147 171.669L49.1665 171.664L156.352 144.928L156.372 144.924C161.761 143.573 165.002 138.258 163.618 133.043L131.15 11.2616C129.754 6.04908 124.259 2.91345 118.867 4.25201Z" fill="white"/>
<path d="M112.171 43.6882L57.9483 57.2136C56.6868 57.5269 55.4015 56.7918 55.0776 55.5716C54.7542 54.3532 55.5116 53.1114 56.7707 52.796L110.993 39.271C112.255 38.9585 113.54 39.6939 113.863 40.9144C114.185 42.1317 113.429 43.3726 112.171 43.6882Z" fill="#F2F2F2"/>
<path d="M123.577 48.7929L59.9354 64.6674C58.6745 64.9833 57.388 64.2507 57.0614 63.0311C56.7351 61.8116 57.4925 60.5669 58.7534 60.2513L58.7578 60.2501L122.4 44.3756C123.661 44.0608 124.947 44.7949 125.272 46.0147C125.597 47.2346 124.839 48.4784 123.577 48.7929Z" fill="#F2F2F2"/>
<path d="M121.077 77.0949L66.8548 90.6197C65.5942 90.9356 64.3075 90.203 63.9808 88.9837C63.6545 87.7641 64.4119 86.5195 65.6728 86.2038L65.6772 86.2027L119.9 72.6771C121.16 72.3609 122.448 73.0932 122.774 74.3125C123.102 75.5318 122.345 76.7767 121.084 77.0929L121.077 77.0949Z" fill="#F2F2F2"/>
<path d="M132.484 82.1997L68.8419 98.0742C67.5813 98.3899 66.2945 97.6573 65.9679 96.4377C65.6416 95.2184 66.399 93.9737 67.6598 93.6578L67.6643 93.6567L131.306 77.7821C132.567 77.4676 133.853 78.2017 134.178 79.4215C134.503 80.6414 133.745 81.8849 132.484 82.1997Z" fill="#F2F2F2"/>
<path d="M48.6918 71.0815L29.503 75.8679C28.8983 76.0179 28.2821 75.6664 28.1256 75.0818L23.721 58.5603C23.5656 57.9754 23.929 57.3794 24.5334 57.228L43.7221 52.4416C44.3268 52.2916 44.943 52.6431 45.0995 53.2277L49.5045 69.7492C49.6596 70.3341 49.2962 70.93 48.6918 71.0815Z" fill="#E6E6E6"/>
<path d="M57.5978 104.488L38.409 109.274C37.8043 109.425 37.1881 109.073 37.0316 108.488L32.6269 91.967C32.4716 91.3821 32.8353 90.7861 33.4394 90.6347L52.6284 85.8483C53.2328 85.6983 53.849 86.0498 54.0055 86.6342L58.4105 103.156C58.5655 103.74 58.2021 104.336 57.5978 104.488Z" fill="#E6E6E6"/>
<path d="M66.5047 137.894L47.3156 142.681C46.7109 142.831 46.0948 142.479 45.9382 141.895L41.5336 125.373C41.3785 124.788 41.7419 124.192 42.346 124.041L61.5351 119.255C62.1398 119.105 62.7559 119.456 62.9125 120.041L67.3171 136.562C67.4725 137.147 67.1088 137.743 66.5047 137.894Z" fill="#E6E6E6"/>
<path d="M129.984 110.501L75.761 124.027C74.4993 124.339 73.2146 123.603 72.8918 122.382C72.5698 121.165 73.3261 119.925 74.5831 119.609L128.806 106.084C130.067 105.77 131.353 106.504 131.678 107.723C132.003 108.943 131.245 110.187 129.984 110.501Z" fill="#F2F2F2"/>
<path d="M141.391 115.606L77.749 131.481C76.4884 131.798 75.201 131.066 74.8732 129.847C74.5457 128.628 75.302 127.383 76.5625 127.066L76.5708 127.064L140.213 111.189C141.474 110.874 142.76 111.609 143.085 112.828C143.41 114.048 142.652 115.291 141.391 115.606Z" fill="#F2F2F2"/>
<path d="M187.839 26.8401H77.1064C69.2893 26.8486 62.9544 32.9759 62.9456 40.5373V166.303C62.9544 173.864 69.2893 179.991 77.1064 180H187.839C195.656 179.991 201.991 173.864 202 166.303V40.5373C201.991 32.9759 195.656 26.8486 187.839 26.8401Z" fill="#E6E6E6"/>
<path d="M187.839 30.7836H77.1068C71.5401 30.7895 67.0289 35.153 67.0225 40.5377V166.303C67.0289 171.688 71.5401 176.051 77.1068 176.057H187.839C193.406 176.051 197.918 171.688 197.924 166.303V40.5377C197.918 35.153 193.406 30.7895 187.839 30.7836Z" fill="white"/>
<path d="M171.839 99.1062H114.88C113.555 99.1076 112.48 98.0702 112.479 96.7889C112.477 95.5072 113.55 94.4672 114.875 94.4658H114.88H171.839C173.164 94.4672 174.236 95.5072 174.235 96.7889C174.233 98.0679 173.162 99.1045 171.839 99.1062Z" fill="#E6E6E6"/>
<path d="M181.733 106.936H114.88C113.555 106.938 112.48 105.9 112.478 104.619C112.477 103.338 113.549 102.298 114.874 102.296H114.88H181.733C183.058 102.296 184.132 103.335 184.132 104.616C184.132 105.897 183.058 106.936 181.733 106.936Z" fill="#E6E6E6"/>
<path d="M171.839 134.198H114.88C113.555 134.198 112.482 133.16 112.482 131.879C112.482 130.597 113.555 129.558 114.88 129.558H171.839C173.164 129.558 174.238 130.597 174.238 131.879C174.238 133.16 173.164 134.198 171.839 134.198Z" fill="#E6E6E6"/>
<path d="M181.733 142.029H114.88C113.555 142.029 112.482 140.99 112.482 139.708C112.482 138.427 113.555 137.388 114.88 137.388H181.733C183.058 137.388 184.132 138.427 184.132 139.708C184.132 140.99 183.058 142.029 181.733 142.029Z" fill="#E6E6E6"/>
<path d="M102.121 110.491H81.964C81.329 110.491 80.8143 109.993 80.8137 109.379V92.0237C80.8143 91.4097 81.329 90.9119 81.964 90.9114H102.121C102.756 90.9119 103.27 91.4097 103.271 92.0237V109.379C103.27 109.993 102.756 110.491 102.121 110.491Z" fill="#E6E6E6"/>
<path d="M102.121 145.583H81.964C81.329 145.583 80.8143 145.085 80.8137 144.471V127.115C80.8143 126.501 81.329 126.004 81.964 126.003H102.121C102.756 126.004 103.27 126.501 103.271 127.115V144.471C103.27 145.085 102.756 145.583 102.121 145.583Z" fill="#E6E6E6"/>
<path d="M171.902 60.0417H129.908C128.584 60.0417 127.51 59.0029 127.51 57.7215C127.51 56.4402 128.584 55.4016 129.908 55.4016H171.902C173.226 55.4016 174.3 56.4402 174.3 57.7215C174.3 59.0029 173.226 60.0417 171.902 60.0417Z" fill="#CCCCCC"/>
<path d="M181.797 67.872H129.909C128.584 67.872 127.51 66.8335 127.51 65.5521C127.51 64.2708 128.584 63.2319 129.909 63.2319H181.797C183.121 63.2319 184.195 64.2708 184.195 65.5521C184.195 66.8335 183.121 67.872 181.797 67.872Z" fill="#CCCCCC"/>
<path d="M120.615 77.362H81.9005C81.2655 77.3615 80.7508 76.8637 80.7502 76.2495V47.0247C80.7508 46.4105 81.2655 45.9127 81.9005 45.9121H120.615C121.25 45.9127 121.764 46.4105 121.765 47.0247V76.2495C121.764 76.8637 121.25 77.3615 120.615 77.362Z" fill="#15CCAD"/>
</svg>
