<svg width="144" height="38" viewBox="0 0 144 38" fill="none" xmlns="http://www.w3.org/2000/svg">
<rect x="1.5" y="1.5" width="35" height="35" rx="6.5" stroke="#CDCDCD" stroke-width="3"/>
<path d="M12 29L30 29" stroke="#46BEA6" stroke-width="2" stroke-linecap="round"/>
<path d="M12 19L30 19" stroke="#FF985C" stroke-width="2" stroke-linecap="round"/>
<path d="M12 9L30 9" stroke="#FB6868" stroke-width="2" stroke-linecap="round"/>
<path d="M7 10V8H9V10H7Z" stroke="#CDCDCD" stroke-width="0.5"/>
<path d="M7 20V18H9V20H7Z" stroke="#CDCDCD" stroke-width="0.5"/>
<path d="M7 30V28H9V30H7Z" stroke="#CDCDCD" stroke-width="0.5"/>
<path d="M48.9375 8.51562C48.9375 8.18229 49.0521 7.90625 49.2812 7.6875C49.5208 7.45833 49.8125 7.34375 50.1562 7.34375C50.5208 7.34375 50.8177 7.5 51.0469 7.8125L63.5469 24.625V8.5625C63.5469 8.23958 63.6615 7.96354 63.8906 7.73438C64.1198 7.50521 64.3958 7.39062 64.7188 7.39062C65.0417 7.39062 65.3177 7.50521 65.5469 7.73438C65.776 7.96354 65.8906 8.23958 65.8906 8.5625V8.57812L65.875 28.1406C65.875 28.474 65.7552 28.7552 65.5156 28.9844C65.2865 29.2031 65 29.3125 64.6562 29.3125C64.3021 29.3125 64.0052 29.1562 63.7656 28.8438L51.2812 12.0469V28.125C51.2812 28.4479 51.1667 28.724 50.9375 28.9531C50.7083 29.1823 50.4323 29.2969 50.1094 29.2969C49.7865 29.2969 49.5104 29.1823 49.2812 28.9531C49.0521 28.724 48.9375 28.4479 48.9375 28.125V8.51562ZM77.1406 12.9688C78.2344 12.9688 79.2552 13.1875 80.2031 13.625C81.151 14.0625 81.9792 14.6667 82.6875 15.4375C83.4062 16.1979 83.9635 17.0677 84.3594 18.0469C84.7656 19.026 84.9688 20.0625 84.9688 21.1562C84.9688 22.6042 84.625 23.9479 83.9375 25.1875C83.25 26.4271 82.3177 27.4323 81.1406 28.2031C79.974 28.9635 78.6615 29.349 77.2031 29.3594C75.724 29.3594 74.3906 28.9792 73.2031 28.2188C72.0156 27.4583 71.0729 26.4583 70.375 25.2188C69.6875 23.9688 69.3438 22.6146 69.3438 21.1562C69.3438 20.0729 69.5417 19.0417 69.9375 18.0625C70.3438 17.0729 70.901 16.1979 71.6094 15.4375C72.3177 14.6667 73.1406 14.0625 74.0781 13.625C75.026 13.1875 76.0469 12.9688 77.1406 12.9688ZM77.1406 15.3125C76.1198 15.3125 75.1979 15.5833 74.375 16.125C73.5521 16.6667 72.8958 17.3802 72.4062 18.2656C71.9271 19.1406 71.6875 20.0938 71.6875 21.125C71.6875 22.1667 71.9271 23.1354 72.4062 24.0312C72.8854 24.9271 73.5417 25.651 74.375 26.2031C75.2083 26.7448 76.1458 27.0156 77.1875 27.0156C78.2188 27.0052 79.1406 26.7292 79.9531 26.1875C80.776 25.6354 81.4271 24.9167 81.9062 24.0312C82.3854 23.1458 82.625 22.1875 82.625 21.1562C82.625 20.125 82.3802 19.1667 81.8906 18.2812C81.4115 17.3854 80.7552 16.6667 79.9219 16.125C79.099 15.5833 78.1719 15.3125 77.1406 15.3125ZM90.8281 9.71875C90.8281 9.39583 90.9427 9.11979 91.1719 8.89062C91.401 8.66146 91.6771 8.54688 92 8.54688C92.3229 8.54688 92.599 8.66146 92.8281 8.89062C93.0573 9.11979 93.1719 9.39583 93.1719 9.71875L93.1562 13.2188L96.2031 13.2344C96.5052 13.2344 96.7604 13.3438 96.9688 13.5625C97.1875 13.7708 97.2969 14.026 97.2969 14.3281C97.2969 14.6302 97.1875 14.8906 96.9688 15.1094C96.7604 15.3177 96.5052 15.4219 96.2031 15.4219L93.1562 15.4062L93.1406 25.1562C93.1406 25.7083 93.224 26.1562 93.3906 26.5C93.5573 26.8333 93.8958 27 94.4062 27C94.8646 27 95.2396 26.9167 95.5312 26.75C95.8333 26.5729 96.1771 26.4844 96.5625 26.4844C96.8854 26.4844 97.1615 26.599 97.3906 26.8281C97.6198 27.0573 97.7344 27.3333 97.7344 27.6562C97.7344 28.0938 97.5469 28.4375 97.1719 28.6875C96.7969 28.9375 96.3542 29.1094 95.8438 29.2031C95.3438 29.3073 94.8958 29.3594 94.5 29.3594C93.2708 29.3594 92.3438 28.9688 91.7188 28.1875C91.1042 27.3958 90.7969 26.375 90.7969 25.125L90.8125 15.4219H88.4062C88.1042 15.4219 87.8438 15.3177 87.625 15.1094C87.4167 14.8906 87.3125 14.6302 87.3125 14.3281C87.3125 14.026 87.4167 13.7708 87.625 13.5625C87.8438 13.3438 88.1042 13.2344 88.4062 13.2344H90.8125L90.8281 9.71875ZM108.188 29.3125C106.677 29.3125 105.307 28.9375 104.078 28.1875C102.859 27.4375 101.891 26.4375 101.172 25.1875C100.453 23.9271 100.094 22.5469 100.094 21.0469C100.094 19.6198 100.432 18.3021 101.109 17.0938C101.797 15.875 102.724 14.8958 103.891 14.1562C105.057 13.4167 106.359 13.0469 107.797 13.0469C109.12 13.0469 110.333 13.375 111.438 14.0312C112.552 14.6875 113.443 15.5729 114.109 16.6875C114.786 17.7917 115.125 19.0208 115.125 20.375C115.125 20.8542 115.036 21.2656 114.859 21.6094C114.693 21.9531 114.38 22.125 113.922 22.125H102.547C102.714 22.9896 103.052 23.7917 103.562 24.5312C104.083 25.2604 104.734 25.849 105.516 26.2969C106.307 26.7448 107.188 26.9688 108.156 26.9688C108.979 26.9688 109.786 26.7865 110.578 26.4219C111.37 26.0573 112.021 25.5573 112.531 24.9219C112.76 24.6198 113.068 24.4688 113.453 24.4688C113.776 24.4688 114.052 24.5833 114.281 24.8125C114.51 25.0417 114.625 25.3177 114.625 25.6406C114.625 25.9219 114.531 26.1771 114.344 26.4062C113.594 27.3229 112.672 28.0365 111.578 28.5469C110.495 29.0573 109.365 29.3125 108.188 29.3125ZM112.734 19.8125C112.641 19 112.365 18.2604 111.906 17.5938C111.448 16.9167 110.865 16.3802 110.156 15.9844C109.448 15.5885 108.667 15.3906 107.812 15.3906C106.927 15.3906 106.12 15.5938 105.391 16C104.661 16.4062 104.052 16.9427 103.562 17.6094C103.083 18.276 102.755 19.0104 102.578 19.8125H112.734ZM125.969 12.9062C127.365 12.9062 128.635 13.2083 129.781 13.8125C130.938 14.4167 131.792 15.2396 132.344 16.2812C132.438 16.4479 132.484 16.6302 132.484 16.8281C132.484 17.1406 132.37 17.4062 132.141 17.625C131.922 17.8438 131.656 17.9531 131.344 17.9531C131.156 17.9531 130.964 17.8958 130.766 17.7812C130.568 17.6562 130.427 17.5104 130.344 17.3438C129.969 16.6354 129.396 16.099 128.625 15.7344C127.865 15.3594 126.974 15.1719 125.953 15.1719C125.307 15.1719 124.604 15.2604 123.844 15.4375C123.083 15.6042 122.427 15.8854 121.875 16.2812C121.333 16.6667 121.062 17.1875 121.062 17.8438C121.062 18.3542 121.281 18.75 121.719 19.0312C122.156 19.3125 122.698 19.5208 123.344 19.6562C124 19.7812 124.661 19.8698 125.328 19.9219C126.005 19.974 126.583 20.026 127.062 20.0781C128.01 20.1719 128.943 20.3438 129.859 20.5938C130.776 20.8438 131.536 21.2552 132.141 21.8281C132.745 22.401 133.047 23.2292 133.047 24.3125C133.047 25.4792 132.703 26.4375 132.016 27.1875C131.328 27.9271 130.448 28.474 129.375 28.8281C128.302 29.1719 127.188 29.3438 126.031 29.3438C124.406 29.3438 122.932 29.0312 121.609 28.4062C120.286 27.7708 119.312 26.8438 118.688 25.625C118.604 25.4792 118.562 25.3021 118.562 25.0938C118.562 24.7812 118.672 24.5156 118.891 24.2969C119.109 24.0781 119.375 23.9688 119.688 23.9688C119.885 23.9688 120.083 24.0312 120.281 24.1562C120.479 24.2708 120.62 24.4167 120.703 24.5938C121.151 25.4479 121.839 26.0781 122.766 26.4844C123.693 26.8802 124.781 27.0781 126.031 27.0781C126.75 27.0781 127.474 26.9948 128.203 26.8281C128.943 26.651 129.557 26.3594 130.047 25.9531C130.547 25.5469 130.797 25 130.797 24.3125C130.797 23.7708 130.573 23.3594 130.125 23.0781C129.677 22.7865 129.115 22.5781 128.438 22.4531C127.76 22.3281 127.073 22.2448 126.375 22.2031C125.688 22.1615 125.094 22.1094 124.594 22.0469C123.708 21.9427 122.818 21.7656 121.922 21.5156C121.036 21.2552 120.297 20.8385 119.703 20.2656C119.109 19.6927 118.812 18.8854 118.812 17.8438C118.812 16.9688 119.026 16.224 119.453 15.6094C119.891 14.9844 120.458 14.474 121.156 14.0781C121.865 13.6719 122.641 13.375 123.484 13.1875C124.328 13 125.156 12.9062 125.969 12.9062Z" fill="url(#paint0_radial_18_354)"/>
<defs>
<radialGradient id="paint0_radial_18_354" cx="0" cy="0" r="1" gradientUnits="userSpaceOnUse" gradientTransform="translate(92.5 38) rotate(-180) scale(35 127.931)">
<stop stop-color="#FB6868"/>
<stop offset="0.506494" stop-color="#FF985C"/>
<stop offset="1" stop-color="#46BEA6"/>
</radialGradient>
</defs>
</svg>
